<svg id="Layer_1" data-name="Layer 1" xmlns="http://www.w3.org/2000/svg" viewBox="0 0 29.414 29.411"><defs><style>.cls-1{fill:#42bdbd;}.cls-2{fill:#249d98;}.cls-3{fill:#2d3e50;}.cls-4{fill:#f29b1f;}.cls-5{fill:#f0c319;}.cls-6{fill:#8c8c8c;}</style></defs><title>Students_Earn_While_You_Learn_Icon</title><circle class="cls-1" cx="14.707" cy="14.705" r="14.706"/><path class="cls-2" d="M29.221,18.756l-6.269-6.273a1.063,1.063,0,0,0-.18-0.169L14.294,9.268a1.493,1.493,0,0,0-1.714,0L6.531,12.314a0.773,0.773,0,0,0-.03,1.278l3.247,3.255v2.24l9.874,9.877A14.728,14.728,0,0,0,29.221,18.756Z" transform="translate(-0.293 -0.295)"/><path class="cls-3" d="M6.531,12.314L12.58,9.268a1.493,1.493,0,0,1,1.714,0l8.479,3.045a0.773,0.773,0,0,1,0,1.3l-3.215,1.665-2.834,1.465a1.487,1.487,0,0,1-1.713,0l-5.263-1.94L6.531,13.616A0.774,0.774,0,0,1,6.531,12.314Z" transform="translate(-0.293 -0.295)"/><path class="cls-4" d="M22.808,17.952a0.173,0.173,0,0,1,.051-0.162H23.4a0.173,0.173,0,0,1,.052.162l0.369,1.368a0.168,0.168,0,0,1-.052.16H22.49a0.166,0.166,0,0,1-.052-0.16Z" transform="translate(-0.293 -0.295)"/><path class="cls-5" d="M23.3,17.116a0.146,0.146,0,0,0,.049-0.1V13.89a0.159,0.159,0,0,0-.076-0.125,0.274,0.274,0,0,0-.145-0.042,0.2,0.2,0,0,0-.221.167v3.128a0.142,0.142,0,0,0,.049.1,0.363,0.363,0,0,0-.286.324,0.475,0.475,0,0,0,.916,0A0.362,0.362,0,0,0,23.3,17.116Z" transform="translate(-0.293 -0.295)"/><path class="cls-6" d="M11.261,16.359a0.235,0.235,0,0,0-.441,0v2.71l0.441,0.079c-0.049-.012.048,0.01,0,0v-2.79Z" transform="translate(-0.293 -0.295)"/><path class="cls-3" d="M17.082,17.018a2.119,2.119,0,0,1-2.43,0l-4.9-1.81v3.879a2.236,2.236,0,0,1,.379-0.055,3.4,3.4,0,0,1,.689.033l0-2.707a0.235,0.235,0,0,1,.441,0v2.79c0.048,0.01.1,0.022,0.141,0.035A6.785,6.785,0,0,1,14.607,21a7.4,7.4,0,0,1,4.95-1.915v-3.35Z" transform="translate(-0.293 -0.295)"/></svg>